<?xml version="1.0" encoding="iso-8859-1"?>
<!-- Uploaded to: SVG Repo, www.svgrepo.com, Generator: SVG Repo Mixer Tools -->
<!DOCTYPE svg PUBLIC "-//W3C//DTD SVG 1.1//EN" "http://www.w3.org/Graphics/SVG/1.1/DTD/svg11.dtd">
<svg fill="#000000" version="1.1" id="Capa_1" xmlns="http://www.w3.org/2000/svg" xmlns:xlink="http://www.w3.org/1999/xlink" 
	 width="800px" height="800px" viewBox="0 0 31.465 31.465"
	 xml:space="preserve">
<g>
	<g>
		<path d="M24.086,12.438c0.381,0,0.771,0.131,1.171,0.391l0.712-1.513c-0.707-0.373-1.379-0.561-2.013-0.561
			c-0.802,0-1.488,0.237-2.062,0.711c-0.562,0.462-0.949,1.092-1.162,1.893h-0.431l-0.37,0.891h0.67
			c-0.006,0.026-0.01,0.061-0.01,0.101c0,0.033,0,0.073,0,0.12s0,0.091,0,0.13c0,0.033,0.004,0.063,0.01,0.092h-0.279l-0.37,0.89
			h0.78c0.207,0.781,0.586,1.408,1.142,1.882c0.562,0.461,1.241,0.689,2.042,0.689c0.641,0,1.191-0.104,1.652-0.311v-1.862
			c-0.508,0.335-0.971,0.501-1.393,0.501c-0.634,0-1.074-0.3-1.32-0.9h1.34l0.371-0.89h-1.892c-0.008-0.034-0.011-0.068-0.011-0.102
			c0-0.04,0-0.084,0-0.129c0-0.042,0-0.078,0-0.111c0-0.034,0.003-0.067,0.011-0.101h2.063l0.369-0.891h-2.272
			C23.089,12.744,23.507,12.438,24.086,12.438z"/>
		<path d="M30.219,7.009V5.028l-0.285-0.113c-0.098-0.038-2.427-0.942-5.533-0.942c-3.328,0-6.195,1.013-8.527,3.014
			c-2.333-2.001-5.199-3.014-8.526-3.014c-3.108,0-5.437,0.904-5.534,0.942L1.526,5.028v1.836C0.586,7.038,0,7.354,0,7.869
			c0,2.677,0,18.918,0,18.918h13.934c0.481,0.432,1.186,0.705,1.975,0.705c0.788,0,1.491-0.273,1.974-0.705h13.582
			c0,0,0-17.979,0-18.918C31.464,7.45,30.988,7.177,30.219,7.009z M15.723,25.295c-1.156-0.479-5.142-1.992-9.131-1.992
			c-1.576,0-2.974,0.24-4.163,0.719V5.653c0.694-0.233,2.587-0.78,4.918-0.78c3.063,0,5.694,0.928,7.845,2.734v10.966l0.531-0.586
			V25.295z M29.316,24.027c-1.277-0.514-2.744-0.772-4.371-0.772c-3.986,0-7.781,1.526-8.924,2.03v-7.299l0.531,0.586V7.607
			c2.15-1.807,4.783-2.735,7.848-2.735c2.322,0,4.221,0.548,4.916,0.779V24.027z"/>
		<path d="M4.216,8.07l0.188,0.707c4.704-1.248,8.938,1.061,8.979,1.085l0.357-0.639C13.558,9.122,9.211,6.746,4.216,8.07z"/>
		<path d="M4.216,10.139l0.188,0.707c4.704-1.249,8.938,1.062,8.979,1.085l0.357-0.639C13.558,11.19,9.211,8.815,4.216,10.139z"/>
		<path d="M4.216,12.083l0.188,0.707c4.704-1.247,8.938,1.063,8.979,1.084l0.357-0.639C13.558,13.135,9.211,10.761,4.216,12.083z"/>
		<path d="M4.216,14.216l0.188,0.707c4.704-1.248,8.938,1.061,8.979,1.085l0.357-0.639C13.558,15.267,9.211,12.891,4.216,14.216z"/>
		<path d="M4.216,16.19l0.188,0.707c4.704-1.246,8.938,1.062,8.979,1.086l0.357-0.639C13.558,17.244,9.211,14.869,4.216,16.19z"/>
		<path d="M4.216,18.22l0.188,0.706c4.704-1.246,8.938,1.062,8.979,1.086l0.357-0.639C13.558,19.271,9.211,16.896,4.216,18.22z"/>
		<path d="M4.216,20.254l0.188,0.707c4.704-1.248,8.938,1.062,8.979,1.085l0.357-0.64C13.558,21.306,9.211,18.93,4.216,20.254z"/>
	</g>
</g>
</svg>